# xmcd
#
# Track frame offsets:
#	150
#	17088
#	31156
#	44207
#	70855
#	89562
#	110777
#	121654
#	137519
#	149581
#	152768
#	155119
#	157052
#	169824
#	185759
#	200133
#	219648
#
# Disc length: 3191 seconds
#
# Revision: 0
# Processed by: cddbd v1.5.1PL2 Copyright (c) Steve Scherf et al.
# Submitted via: dBpowerAMP V4.0
#
DISCID=080c7511
DTITLE=Tete - A la faveur de l'automne
DYEAR=2005
DGENRE=Blues
TTITLE0=A la faveur de l'automne
TTITLE1=Emma Stanton
TTITLE2=Le songe de Marie
TTITLE3=La ballade de Oogie Tsuggie
TTITLE4=Les matins de peu
TTITLE5=Montreal
TTITLE6=Ton absence
TTITLE7=Le retour d'Ootsie Putsie
TTITLE8=Une bonne paire de claques
TTITLE9=Je l'appelle de mes voeux
TTITLE10=La pudeur
TTITLE11=La tchave
TTITLE12=Inspiration et circonstances
TTITLE13=La long de la greve
TTITLE14=Routine
TTITLE15=Ces grands moments de solitude
TTITLE16=Flou
EXTD=
EXTT0=
EXTT1=
EXTT2=
EXTT3=
EXTT4=
EXTT5=
EXTT6=
EXTT7=
EXTT8=
EXTT9=
EXTT10=
EXTT11=
EXTT12=
EXTT13=
EXTT14=
EXTT15=
EXTT16=
PLAYORDER=
